<svg width="49" height="72" viewBox="0 0 49 72" fill="none" xmlns="http://www.w3.org/2000/svg">
<g clip-path="url(#clip0_3_5)">
<path d="M48.8115 55.6167C48.7686 55.5426 45.5539 49.7763 44.0462 38.4072C44.045 38.3983 44.0324 38.3967 44.0296 38.4052C39.7864 51.367 30.5598 62.351 30.055 62.9447C29.7716 63.2782 29.3695 63.4492 28.963 63.4492C28.6367 63.4492 28.3075 63.338 28.0398 63.1129C27.4359 62.6041 27.36 61.7049 27.8709 61.1049C28.024 60.9224 43.2755 42.7677 43.2755 26.3957C43.2755 17.6726 37.0388 10.1789 28.6883 8.326C28.6855 8.3254 28.6833 8.32348 28.6822 8.32089L25.9974 1.6383C25.7799 1.09817 25.2546 0.743317 24.6693 0.743317C24.0839 0.743317 23.5586 1.09817 23.3396 1.6383L20.6562 8.32089C20.6552 8.32348 20.6529 8.3254 20.6502 8.326C12.2996 10.1789 6.06297 17.6726 6.06297 26.3957C6.06297 42.7848 21.3144 60.9224 21.4675 61.1035C21.9785 61.7049 21.9027 62.6041 21.3 63.1114C21.031 63.338 20.7032 63.4492 20.3769 63.4492C19.9705 63.4492 19.5668 63.2782 19.2834 62.9447C18.7787 62.351 9.54776 51.3613 5.30598 38.3952C5.30318 38.3866 5.2906 38.3882 5.28941 38.3972C3.77878 49.7351 0.568354 55.5441 0.525463 55.6195C0.217745 56.1611 0.296464 56.8409 0.722977 57.2969C1.28546 57.8969 14.6218 72 24.6693 72C34.7166 72 48.053 57.8969 48.6155 57.2955C49.0434 56.8395 49.1221 56.1582 48.8115 55.6167ZM16.0817 40.6471C14.0924 40.6471 11.8746 32.4204 11.7905 32.1056C11.7887 32.099 11.7912 32.0973 11.7976 32.0995C12.107 32.2021 19.81 34.7962 21.8031 39.2138C21.8051 39.2183 21.8047 39.2227 21.8002 39.2245C21.6273 39.2907 18.0603 40.6471 16.0817 40.6471ZM24.6775 14.7866C24.6753 14.7951 24.6631 14.7951 24.661 14.7866L23.3074 9.39793C23.3069 9.39624 23.307 9.39438 23.3077 9.39278L24.6614 6.0245C24.6642 6.01742 24.6743 6.01742 24.6771 6.0245L26.0307 9.39278C26.0314 9.39438 26.0316 9.39624 26.0311 9.39793L24.6775 14.7866ZM37.5408 32.0995C37.5473 32.0973 37.5498 32.099 37.548 32.1056C37.4639 32.4204 35.246 40.6471 33.2568 40.6471C31.2782 40.6471 27.7113 39.2907 27.5383 39.2245C27.5337 39.2227 27.5334 39.2183 27.5354 39.2138C29.5284 34.7962 37.2314 32.2021 37.5408 32.0995Z" fill="#4E4E4E"/>
<path d="M48.4724 54.8734C48.4295 54.7993 45.2147 49.033 43.707 37.6639C43.7058 37.655 43.6932 37.6534 43.6904 37.6619C39.4473 50.6237 30.2206 61.6076 29.7158 62.2014C29.4325 62.5348 29.0303 62.7059 28.6238 62.7059C28.2975 62.7059 27.9683 62.5947 27.7006 62.3695C27.0967 61.8608 27.0208 60.9616 27.5317 60.3616C27.6849 60.1791 42.9363 42.0244 42.9363 25.6524C42.9363 16.9293 36.6996 9.4356 28.3491 7.58268C28.3463 7.58208 28.3441 7.58016 28.343 7.57757L25.6582 0.894983C25.4407 0.354859 24.9155 0 24.3301 0C23.7447 0 23.2194 0.354859 23.0004 0.894983L20.3171 7.57757C20.316 7.58016 20.3138 7.58208 20.311 7.58268C11.9604 9.4356 5.7238 16.9293 5.7238 25.6524C5.7238 42.0414 20.9752 60.1791 21.1283 60.3601C21.6393 60.9616 21.5635 61.8608 20.9609 62.3681C20.6918 62.5947 20.364 62.7059 20.0378 62.7059C19.6313 62.7059 19.2276 62.5348 18.9442 62.2014C18.4395 61.6076 9.20859 50.618 4.96681 37.6518C4.96401 37.6433 4.95143 37.6449 4.95024 37.6539C3.43961 48.9918 0.229182 54.8008 0.186291 54.8762C-0.121427 55.4178 -0.0427082 56.0976 0.383804 56.5536C0.946288 57.1536 14.2827 71.2567 24.3301 71.2567C34.3774 71.2567 47.7138 57.1536 48.2763 56.5522C48.7043 56.0961 48.7829 55.4149 48.4724 54.8734ZM15.7426 39.9037C13.7532 39.9037 11.5354 31.677 11.4513 31.3622C11.4495 31.3557 11.452 31.354 11.4584 31.3562C11.7678 31.4588 19.4709 34.0529 21.4639 38.4705C21.4659 38.475 21.4655 38.4794 21.4611 38.4811C21.2881 38.5474 17.7211 39.9037 15.7426 39.9037ZM24.3383 14.0433C24.3361 14.0518 24.324 14.0518 24.3219 14.0433L22.9682 8.65461C22.9678 8.65292 22.9678 8.65107 22.9685 8.64946L24.3222 5.28118C24.325 5.2741 24.3351 5.2741 24.3379 5.28118L25.6916 8.64946C25.6922 8.65107 25.6924 8.65292 25.692 8.65461L24.3383 14.0433ZM37.2017 31.3562C37.2081 31.354 37.2106 31.3557 37.2088 31.3622C37.1247 31.677 34.9068 39.9037 32.9176 39.9037C30.939 39.9037 27.3721 38.5474 27.1991 38.4811C27.1945 38.4794 27.1942 38.475 27.1962 38.4705C29.1892 34.0529 36.8923 31.4588 37.2017 31.3562Z" fill="#A38CFF"/>
</g>
<defs>
<clipPath id="clip0_3_5">
<rect width="49" height="72" fill="white"/>
</clipPath>
</defs>
</svg>
