<svg width="356" height="72" viewBox="0 0 356 72" fill="none" xmlns="http://www.w3.org/2000/svg">
<g clip-path="url(#clip0_15_2)">
<path d="M48.8115 55.6167C48.7686 55.5426 45.5539 49.7763 44.0462 38.4072C44.045 38.3983 44.0324 38.3967 44.0296 38.4052C39.7864 51.367 30.5598 62.351 30.055 62.9447C29.7716 63.2782 29.3695 63.4492 28.963 63.4492C28.6367 63.4492 28.3075 63.338 28.0398 63.1129C27.4359 62.6041 27.36 61.7049 27.8709 61.1049C28.024 60.9224 43.2755 42.7677 43.2755 26.3957C43.2755 17.6726 37.0388 10.1789 28.6883 8.326C28.6855 8.3254 28.6833 8.32348 28.6822 8.32089L25.9974 1.6383C25.7799 1.09817 25.2546 0.743317 24.6693 0.743317C24.0839 0.743317 23.5586 1.09817 23.3396 1.6383L20.6562 8.32089C20.6552 8.32348 20.6529 8.3254 20.6502 8.326C12.2996 10.1789 6.06297 17.6726 6.06297 26.3957C6.06297 42.7848 21.3144 60.9224 21.4675 61.1035C21.9785 61.7049 21.9027 62.6041 21.3 63.1114C21.031 63.338 20.7032 63.4492 20.3769 63.4492C19.9705 63.4492 19.5668 63.2782 19.2834 62.9447C18.7787 62.351 9.54776 51.3613 5.30598 38.3952C5.30318 38.3866 5.2906 38.3882 5.28941 38.3972C3.77878 49.7351 0.568354 55.5441 0.525463 55.6195C0.217745 56.1611 0.296464 56.8409 0.722977 57.2969C1.28546 57.8969 14.6218 72 24.6693 72C34.7166 72 48.053 57.8969 48.6155 57.2955C49.0434 56.8395 49.1221 56.1582 48.8115 55.6167ZM16.0817 40.6471C14.0924 40.6471 11.8746 32.4204 11.7905 32.1056C11.7887 32.099 11.7912 32.0973 11.7976 32.0995C12.107 32.2021 19.81 34.7962 21.8031 39.2138C21.8051 39.2183 21.8047 39.2227 21.8002 39.2245C21.6273 39.2907 18.0603 40.6471 16.0817 40.6471ZM24.6775 14.7866C24.6753 14.7951 24.6631 14.7951 24.661 14.7866L23.3074 9.39793C23.3069 9.39624 23.307 9.39438 23.3077 9.39278L24.6614 6.0245C24.6642 6.01742 24.6743 6.01742 24.6771 6.0245L26.0307 9.39278C26.0314 9.39438 26.0316 9.39624 26.0311 9.39793L24.6775 14.7866ZM37.5408 32.0995C37.5473 32.0973 37.5498 32.099 37.548 32.1056C37.4639 32.4204 35.246 40.6471 33.2568 40.6471C31.2782 40.6471 27.7113 39.2907 27.5383 39.2245C27.5337 39.2227 27.5334 39.2183 27.5354 39.2138C29.5284 34.7962 37.2314 32.2021 37.5408 32.0995Z" fill="#4E4E4E"/>
<path d="M48.4724 54.8734C48.4295 54.7993 45.2147 49.033 43.707 37.6639C43.7058 37.655 43.6932 37.6534 43.6904 37.6619C39.4473 50.6237 30.2206 61.6076 29.7158 62.2014C29.4325 62.5348 29.0303 62.7059 28.6238 62.7059C28.2975 62.7059 27.9683 62.5947 27.7006 62.3695C27.0967 61.8608 27.0208 60.9616 27.5317 60.3616C27.6849 60.1791 42.9363 42.0244 42.9363 25.6524C42.9363 16.9293 36.6996 9.4356 28.3491 7.58268C28.3463 7.58208 28.3441 7.58016 28.343 7.57757L25.6582 0.894983C25.4407 0.354859 24.9155 0 24.3301 0C23.7447 0 23.2194 0.354859 23.0004 0.894983L20.3171 7.57757C20.316 7.58016 20.3138 7.58208 20.311 7.58268C11.9604 9.4356 5.7238 16.9293 5.7238 25.6524C5.7238 42.0414 20.9752 60.1791 21.1283 60.3601C21.6393 60.9616 21.5635 61.8608 20.9609 62.3681C20.6918 62.5947 20.364 62.7059 20.0378 62.7059C19.6313 62.7059 19.2276 62.5348 18.9442 62.2014C18.4395 61.6076 9.20859 50.618 4.96681 37.6518C4.96401 37.6433 4.95143 37.6449 4.95024 37.6539C3.43961 48.9918 0.229182 54.8008 0.186291 54.8762C-0.121427 55.4178 -0.0427082 56.0976 0.383804 56.5536C0.946288 57.1536 14.2827 71.2567 24.3301 71.2567C34.3774 71.2567 47.7138 57.1536 48.2763 56.5522C48.7043 56.0961 48.7829 55.4149 48.4724 54.8734ZM15.7426 39.9037C13.7532 39.9037 11.5354 31.677 11.4513 31.3622C11.4495 31.3557 11.452 31.354 11.4584 31.3562C11.7678 31.4588 19.4709 34.0529 21.4639 38.4705C21.4659 38.475 21.4655 38.4794 21.4611 38.4811C21.2881 38.5474 17.7211 39.9037 15.7426 39.9037ZM24.3383 14.0433C24.3361 14.0518 24.324 14.0518 24.3219 14.0433L22.9682 8.65461C22.9678 8.65292 22.9678 8.65107 22.9685 8.64946L24.3222 5.28118C24.325 5.2741 24.3351 5.2741 24.3379 5.28118L25.6916 8.64946C25.6922 8.65107 25.6924 8.65292 25.692 8.65461L24.3383 14.0433ZM37.2017 31.3562C37.2081 31.354 37.2106 31.3557 37.2088 31.3622C37.1247 31.677 34.9068 39.9037 32.9176 39.9037C30.939 39.9037 27.3721 38.5474 27.1991 38.4811C27.1945 38.4794 27.1942 38.475 27.1962 38.4705C29.1892 34.0529 36.8923 31.4588 37.2017 31.3562Z" fill="#A38CFF"/>
</g>
<path d="M76.8045 47V26.21H90.1545V29.42H80.5845V34.55H89.1045V37.7H80.5845V43.79H90.8745V47H76.8045ZM99.4226 44.18C100.783 44.18 101.773 43.95 102.393 43.49C103.013 43.03 103.323 42.38 103.323 41.54C103.323 41.04 103.213 40.61 102.993 40.25C102.793 39.89 102.493 39.57 102.093 39.29C101.713 38.99 101.243 38.72 100.683 38.48C100.123 38.22 99.4826 37.97 98.7626 37.73C98.0426 37.47 97.3426 37.19 96.6626 36.89C96.0026 36.57 95.4126 36.18 94.8926 35.72C94.3926 35.26 93.9826 34.71 93.6626 34.07C93.3626 33.43 93.2126 32.66 93.2126 31.76C93.2126 29.88 93.8626 28.41 95.1626 27.35C96.4626 26.27 98.2326 25.73 100.473 25.73C101.773 25.73 102.923 25.88 103.923 26.18C104.943 26.46 105.743 26.77 106.323 27.11L105.153 30.17C104.473 29.79 103.723 29.5 102.903 29.3C102.103 29.1 101.273 29 100.413 29C99.3926 29 98.5926 29.21 98.0126 29.63C97.4526 30.05 97.1726 30.64 97.1726 31.4C97.1726 31.86 97.2626 32.26 97.4426 32.6C97.6426 32.92 97.9126 33.21 98.2526 33.47C98.6126 33.73 99.0226 33.97 99.4826 34.19C99.9626 34.41 100.483 34.62 101.043 34.82C102.023 35.18 102.893 35.55 103.653 35.93C104.433 36.29 105.083 36.73 105.603 37.25C106.143 37.75 106.553 38.35 106.833 39.05C107.113 39.73 107.253 40.56 107.253 41.54C107.253 43.42 106.583 44.88 105.243 45.92C103.923 46.94 101.983 47.45 99.4226 47.45C98.5626 47.45 97.7726 47.39 97.0526 47.27C96.3526 47.17 95.7226 47.04 95.1626 46.88C94.6226 46.72 94.1526 46.56 93.7526 46.4C93.3526 46.22 93.0326 46.06 92.7926 45.92L93.9026 42.83C94.4426 43.13 95.1726 43.43 96.0926 43.73C97.0126 44.03 98.1226 44.18 99.4226 44.18ZM125.074 26.21V29.48H118.684V47H114.874V29.48H108.484V26.21H125.074ZM127.957 47V26.21H141.307V29.42H131.737V34.55H140.257V37.7H131.737V43.79H142.027V47H127.957ZM151.475 47C149.975 43.76 148.525 40.37 147.125 36.83C145.745 33.29 144.455 29.75 143.255 26.21H147.425C147.905 27.61 148.395 29.04 148.895 30.5C149.395 31.96 149.895 33.4 150.395 34.82C150.895 36.22 151.395 37.58 151.895 38.9C152.395 40.22 152.885 41.43 153.365 42.53C153.825 41.43 154.305 40.23 154.805 38.93C155.305 37.61 155.805 36.24 156.305 34.82C156.825 33.4 157.335 31.96 157.835 30.5C158.335 29.04 158.815 27.61 159.275 26.21H163.325C162.105 29.75 160.805 33.29 159.425 36.83C158.045 40.37 156.605 43.76 155.105 47H151.475ZM178.173 47C177.893 46.18 177.603 45.37 177.303 44.57C177.003 43.77 176.713 42.95 176.433 42.11H167.673C167.393 42.95 167.103 43.78 166.803 44.6C166.523 45.4 166.243 46.2 165.963 47H162.033C162.813 44.78 163.553 42.73 164.253 40.85C164.953 38.97 165.633 37.19 166.293 35.51C166.973 33.83 167.643 32.23 168.303 30.71C168.963 29.19 169.643 27.69 170.343 26.21H173.913C174.613 27.69 175.293 29.19 175.953 30.71C176.613 32.23 177.273 33.83 177.933 35.51C178.613 37.19 179.303 38.97 180.003 40.85C180.723 42.73 181.473 44.78 182.253 47H178.173ZM172.053 30.23C171.593 31.29 171.063 32.58 170.463 34.1C169.883 35.62 169.273 37.27 168.633 39.05H175.473C174.833 37.27 174.213 35.61 173.613 34.07C173.013 32.53 172.493 31.25 172.053 30.23ZM177.423 20.93C177.303 21.21 177.143 21.52 176.943 21.86C176.763 22.18 176.533 22.49 176.253 22.79C175.973 23.07 175.653 23.31 175.293 23.51C174.933 23.71 174.533 23.81 174.093 23.81C173.733 23.81 173.393 23.76 173.073 23.66C172.753 23.54 172.433 23.41 172.113 23.27C171.813 23.13 171.513 23.01 171.213 22.91C170.933 22.79 170.653 22.73 170.373 22.73C169.993 22.73 169.663 22.86 169.383 23.12C169.123 23.38 168.913 23.68 168.753 24.02L166.923 22.94C167.023 22.66 167.163 22.36 167.343 22.04C167.543 21.7 167.783 21.39 168.063 21.11C168.363 20.81 168.693 20.56 169.053 20.36C169.413 20.16 169.813 20.06 170.253 20.06C170.613 20.06 170.953 20.12 171.273 20.24C171.593 20.36 171.903 20.49 172.203 20.63C172.523 20.75 172.823 20.87 173.103 20.99C173.403 21.11 173.693 21.17 173.973 21.17C174.353 21.17 174.673 21.04 174.933 20.78C175.213 20.5 175.433 20.19 175.593 19.85L177.423 20.93ZM187.473 36.59C187.473 37.73 187.613 38.77 187.893 39.71C188.173 40.63 188.573 41.42 189.093 42.08C189.633 42.72 190.283 43.22 191.043 43.58C191.803 43.94 192.663 44.12 193.623 44.12C194.563 44.12 195.413 43.94 196.173 43.58C196.933 43.22 197.573 42.72 198.093 42.08C198.633 41.42 199.043 40.63 199.323 39.71C199.603 38.77 199.743 37.73 199.743 36.59C199.743 35.45 199.603 34.42 199.323 33.5C199.043 32.56 198.633 31.77 198.093 31.13C197.573 30.47 196.933 29.96 196.173 29.6C195.413 29.24 194.563 29.06 193.623 29.06C192.663 29.06 191.803 29.24 191.043 29.6C190.283 29.96 189.633 30.47 189.093 31.13C188.573 31.79 188.173 32.58 187.893 33.5C187.613 34.42 187.473 35.45 187.473 36.59ZM203.703 36.59C203.703 38.37 203.433 39.94 202.893 41.3C202.373 42.66 201.653 43.8 200.733 44.72C199.833 45.62 198.773 46.3 197.553 46.76C196.333 47.22 195.033 47.45 193.653 47.45C192.273 47.45 190.963 47.22 189.723 46.76C188.503 46.3 187.433 45.62 186.513 44.72C185.613 43.8 184.893 42.66 184.353 41.3C183.813 39.94 183.543 38.37 183.543 36.59C183.543 34.81 183.813 33.25 184.353 31.91C184.893 30.55 185.623 29.41 186.543 28.49C187.483 27.57 188.563 26.88 189.783 26.42C191.003 25.96 192.293 25.73 193.653 25.73C195.013 25.73 196.303 25.96 197.523 26.42C198.743 26.88 199.803 27.57 200.703 28.49C201.623 29.41 202.353 30.55 202.893 31.91C203.433 33.25 203.703 34.81 203.703 36.59ZM221.121 47.24C220.021 47.24 218.911 47.2 217.791 47.12C216.671 47.06 215.691 46.92 214.851 46.7V26.51C215.291 26.43 215.761 26.36 216.261 26.3C216.761 26.22 217.271 26.16 217.791 26.12C218.311 26.08 218.821 26.05 219.321 26.03C219.841 26.01 220.331 26 220.791 26C222.051 26 223.221 26.1 224.301 26.3C225.381 26.48 226.311 26.79 227.091 27.23C227.891 27.67 228.511 28.25 228.951 28.97C229.391 29.69 229.611 30.58 229.611 31.64C229.611 32.62 229.371 33.46 228.891 34.16C228.431 34.86 227.781 35.42 226.941 35.84C228.201 36.26 229.131 36.88 229.731 37.7C230.331 38.52 230.631 39.56 230.631 40.82C230.631 42.96 229.851 44.57 228.291 45.65C226.731 46.71 224.341 47.24 221.121 47.24ZM218.571 37.64V43.97C218.991 44.01 219.441 44.04 219.921 44.06C220.401 44.08 220.841 44.09 221.241 44.09C222.021 44.09 222.741 44.04 223.401 43.94C224.081 43.84 224.661 43.67 225.141 43.43C225.641 43.17 226.031 42.83 226.311 42.41C226.611 41.99 226.761 41.45 226.761 40.79C226.761 39.61 226.331 38.79 225.471 38.33C224.611 37.87 223.421 37.64 221.901 37.64H218.571ZM218.571 34.67H221.241C222.681 34.67 223.811 34.47 224.631 34.07C225.451 33.65 225.861 32.91 225.861 31.85C225.861 30.85 225.431 30.14 224.571 29.72C223.731 29.3 222.631 29.09 221.271 29.09C220.691 29.09 220.171 29.1 219.711 29.12C219.271 29.14 218.891 29.17 218.571 29.21V34.67ZM237.658 36.59C237.658 37.73 237.798 38.77 238.078 39.71C238.358 40.63 238.758 41.42 239.278 42.08C239.818 42.72 240.468 43.22 241.228 43.58C241.988 43.94 242.848 44.12 243.808 44.12C244.748 44.12 245.598 43.94 246.358 43.58C247.118 43.22 247.758 42.72 248.278 42.08C248.818 41.42 249.228 40.63 249.508 39.71C249.788 38.77 249.928 37.73 249.928 36.59C249.928 35.45 249.788 34.42 249.508 33.5C249.228 32.56 248.818 31.77 248.278 31.13C247.758 30.47 247.118 29.96 246.358 29.6C245.598 29.24 244.748 29.06 243.808 29.06C242.848 29.06 241.988 29.24 241.228 29.6C240.468 29.96 239.818 30.47 239.278 31.13C238.758 31.79 238.358 32.58 238.078 33.5C237.798 34.42 237.658 35.45 237.658 36.59ZM253.888 36.59C253.888 38.37 253.618 39.94 253.078 41.3C252.558 42.66 251.838 43.8 250.918 44.72C250.018 45.62 248.958 46.3 247.738 46.76C246.518 47.22 245.218 47.45 243.838 47.45C242.458 47.45 241.148 47.22 239.908 46.76C238.688 46.3 237.618 45.62 236.698 44.72C235.798 43.8 235.078 42.66 234.538 41.3C233.998 39.94 233.728 38.37 233.728 36.59C233.728 34.81 233.998 33.25 234.538 31.91C235.078 30.55 235.808 29.41 236.728 28.49C237.668 27.57 238.748 26.88 239.968 26.42C241.188 25.96 242.478 25.73 243.838 25.73C245.198 25.73 246.488 25.96 247.708 26.42C248.928 26.88 249.988 27.57 250.888 28.49C251.808 29.41 252.538 30.55 253.078 31.91C253.618 33.25 253.888 34.81 253.888 36.59ZM272.045 47C271.365 45.86 270.605 44.64 269.765 43.34C268.925 42.02 268.055 40.7 267.155 39.38C266.255 38.04 265.335 36.75 264.395 35.51C263.475 34.25 262.595 33.12 261.755 32.12V47H258.035V26.21H261.125C261.925 27.05 262.785 28.05 263.705 29.21C264.625 30.35 265.545 31.54 266.465 32.78C267.405 34.02 268.305 35.27 269.165 36.53C270.045 37.77 270.825 38.93 271.505 40.01V26.21H275.255V47H272.045ZM294.042 47C293.762 46.18 293.472 45.37 293.172 44.57C292.872 43.77 292.582 42.95 292.302 42.11H283.542C283.262 42.95 282.972 43.78 282.672 44.6C282.392 45.4 282.112 46.2 281.832 47H277.902C278.682 44.78 279.422 42.73 280.122 40.85C280.822 38.97 281.502 37.19 282.162 35.51C282.842 33.83 283.512 32.23 284.172 30.71C284.832 29.19 285.512 27.69 286.212 26.21H289.782C290.482 27.69 291.162 29.19 291.822 30.71C292.482 32.23 293.142 33.83 293.802 35.51C294.482 37.19 295.172 38.97 295.872 40.85C296.592 42.73 297.342 44.78 298.122 47H294.042ZM287.922 30.23C287.462 31.29 286.932 32.58 286.332 34.1C285.752 35.62 285.142 37.27 284.502 39.05H291.342C290.702 37.27 290.082 35.61 289.482 34.07C288.882 32.53 288.362 31.25 287.922 30.23ZM313.541 26.21V29.48H307.151V47H303.341V29.48H296.951V26.21H313.541ZM331.558 26.21V29.48H325.168V47H321.358V29.48H314.968V26.21H331.558ZM336.799 36.59C336.799 37.73 336.939 38.77 337.219 39.71C337.499 40.63 337.899 41.42 338.419 42.08C338.959 42.72 339.609 43.22 340.369 43.58C341.129 43.94 341.989 44.12 342.949 44.12C343.889 44.12 344.739 43.94 345.499 43.58C346.259 43.22 346.899 42.72 347.419 42.08C347.959 41.42 348.369 40.63 348.649 39.71C348.929 38.77 349.069 37.73 349.069 36.59C349.069 35.45 348.929 34.42 348.649 33.5C348.369 32.56 347.959 31.77 347.419 31.13C346.899 30.47 346.259 29.96 345.499 29.6C344.739 29.24 343.889 29.06 342.949 29.06C341.989 29.06 341.129 29.24 340.369 29.6C339.609 29.96 338.959 30.47 338.419 31.13C337.899 31.79 337.499 32.58 337.219 33.5C336.939 34.42 336.799 35.45 336.799 36.59ZM353.029 36.59C353.029 38.37 352.759 39.94 352.219 41.3C351.699 42.66 350.979 43.8 350.059 44.72C349.159 45.62 348.099 46.3 346.879 46.76C345.659 47.22 344.359 47.45 342.979 47.45C341.599 47.45 340.289 47.22 339.049 46.76C337.829 46.3 336.759 45.62 335.839 44.72C334.939 43.8 334.219 42.66 333.679 41.3C333.139 39.94 332.869 38.37 332.869 36.59C332.869 34.81 333.139 33.25 333.679 31.91C334.219 30.55 334.949 29.41 335.869 28.49C336.809 27.57 337.889 26.88 339.109 26.42C340.329 25.96 341.619 25.73 342.979 25.73C344.339 25.73 345.629 25.96 346.849 26.42C348.069 26.88 349.129 27.57 350.029 28.49C350.949 29.41 351.679 30.55 352.219 31.91C352.759 33.25 353.029 34.81 353.029 36.59Z" fill="#A38CFF"/>
<defs>
<clipPath id="clip0_15_2">
<rect width="49" height="72" fill="white"/>
</clipPath>
</defs>
</svg>
